# xmcd CD database file
#
# Track frame offsets:
#	150
#	9230
#	26917
#	43467
#	65950
#	81955
#	101200
#	117200
#	135197
#	155917
#
# Disc length: 2401 seconds
#
# Revision: 0
# Processed by: cddbd v1.5PL3 Copyright (c) Steve Scherf et al.
# Submitted via: CDex 1.51
#
DISCID=8c095f0a
DTITLE=鈴木真仁 - Heavenly
DYEAR=1995
DGENRE=seiyu(J)
TTITLE0=未来のどこかで
TTITLE1=ポケットに詰めたHow are you?
TTITLE2=なるようになる
TTITLE3=二人
TTITLE4=Kiss my hand to heaven
TTITLE5=明日 晴れたら…
TTITLE6=ステキなあなた
TTITLE7=After dateは集中できない
TTITLE8=週末の雨
TTITLE9=恋と言えないけれど
EXTD=YEAR: 1995/10/25
EXTT0=
EXTT1=
EXTT2=
EXTT3=
EXTT4=
EXTT5=
EXTT6=
EXTT7=
EXTT8=
EXTT9=
PLAYORDER=
